<svg width="496" height="200" viewBox="0 0 496 200" fill="none" xmlns="http://www.w3.org/2000/svg">
<path d="M158.333 33.3336H139.111L135.511 23.7336C132.689 16.178 125.367 11.1113 117.3 11.1113H82.7001C74.6334 11.1113 67.3223 16.1891 64.5001 23.7336L60.9001 33.3336H41.6779C24.8223 33.3336 11.1223 47.0336 11.1223 63.8891V136.111C11.1223 152.967 24.8223 166.667 41.6779 166.667H158.333C175.189 166.667 188.889 152.967 188.889 136.111V63.8891C188.889 47.0336 175.189 33.3336 158.333 33.3336ZM47.2223 77.778C42.6223 77.778 38.889 74.0447 38.889 69.4447C38.889 64.8447 42.6223 61.1113 47.2223 61.1113C51.8223 61.1113 55.5556 64.8447 55.5556 69.4447C55.5556 74.0447 51.8223 77.778 47.2223 77.778ZM100 133.334C81.589 133.334 66.6668 118.411 66.6668 100C66.6668 81.5891 81.589 66.6669 100 66.6669C118.411 66.6669 133.333 81.5891 133.333 100C133.333 118.411 118.411 133.334 100 133.334Z" fill="#E4E4E4"/>
<path d="M489.178 55.7667C484.9 53.2445 479.755 53.1667 475.422 55.5556L451.555 68.6778V131.311L475.411 144.433C477.522 145.6 479.822 146.178 482.122 146.178C484.555 146.178 486.989 145.522 489.178 144.233C493.455 141.7 496 137.233 496 132.267V67.7334C496 62.7667 493.455 58.3 489.178 55.7667Z" fill="#E4E4E4"/>
<path d="M404.333 33.3335H337.667C320.811 33.3335 307.111 47.0335 307.111 63.889V136.111C307.111 152.967 320.811 166.667 337.667 166.667H404.333C421.189 166.667 434.889 152.967 434.889 136.111V63.889C434.889 47.0335 421.189 33.3335 404.333 33.3335ZM348.778 83.3335C344.178 83.3335 340.444 79.6002 340.444 75.0002C340.444 70.4002 344.178 66.6668 348.778 66.6668C353.378 66.6668 357.111 70.4002 357.111 75.0002C357.111 79.6002 353.378 83.3335 348.778 83.3335Z" fill="#E4E4E4"/>
</svg>
