<svg width="96" height="96" viewBox="0 0 96 96" fill="none" xmlns="http://www.w3.org/2000/svg">
<path d="M76.0002 21.6667H66.7735L65.0455 17.0587C63.6909 13.432 60.1762 11 56.3042 11H39.6962C35.8242 11 32.3149 13.4373 30.9602 17.0587L29.2322 21.6667H20.0055C11.9149 21.6667 5.33887 28.2427 5.33887 36.3333V71C5.33887 79.0907 11.9149 85.6667 20.0055 85.6667H76.0002C84.0909 85.6667 90.6669 79.0907 90.6669 71V36.3333C90.6669 28.2427 84.0909 21.6667 76.0002 21.6667ZM22.6669 43C20.4589 43 18.6669 41.208 18.6669 39C18.6669 36.792 20.4589 35 22.6669 35C24.8749 35 26.6669 36.792 26.6669 39C26.6669 41.208 24.8749 43 22.6669 43ZM48.0002 69.6667C39.1629 69.6667 32.0002 62.504 32.0002 53.6667C32.0002 44.8293 39.1629 37.6667 48.0002 37.6667C56.8375 37.6667 64.0002 44.8293 64.0002 53.6667C64.0002 62.504 56.8375 69.6667 48.0002 69.6667Z" fill="#E4E4E4"/>
</svg>
