<svg width="143" height="24" viewBox="0 0 143 24" fill="none" xmlns="http://www.w3.org/2000/svg">
<g clip-path="url(#clip0_98_724)">
<path d="M16.9489 19.9298C16.6005 21.0571 16.2348 22.1772 15.9174 23.3115C15.7828 23.786 15.5655 23.9786 15.0756 23.975C11.3981 23.9572 7.72061 23.9572 4.03965 23.975C3.49803 23.975 3.27034 23.7253 3.13925 23.2402C2.194 19.7622 1.21425 16.2913 0.303496 12.8026C0.0965068 12.0107 0.0378598 11.1581 0.0275103 10.3341C-0.00353807 7.21639 0.03441 4.09868 -8.82425e-05 0.977392C-0.00698789 0.238985 0.213801 -1.60257e-05 0.927914 0.00711834C3.71537 0.0427902 6.50283 0.0463573 9.29028 0.00711834C10.0734 -0.00358321 10.2528 0.288926 10.2493 1.04517C10.2183 4.69796 10.2355 8.35432 10.2355 12.0107C10.2355 12.2782 10.2252 12.5458 10.2493 12.8133C10.308 13.3948 10.653 13.8585 11.1877 13.7122C11.5534 13.6123 11.8949 13.1272 12.0915 12.7348C12.233 12.453 12.1226 12.0357 12.1226 11.6789C12.1226 8.11176 12.1398 4.54814 12.1088 0.980959C12.1019 0.235418 12.3365 0.00355116 13.0437 0.0142527C15.6863 0.0463573 18.3323 0.0463573 20.9748 0.0142527C21.7062 0.00355116 21.9028 0.285358 21.8959 1.00593C21.8683 4.7479 21.8821 8.49344 21.8856 12.239C21.8856 12.478 21.8028 12.7848 21.9166 12.9382C22.1512 13.2592 22.4686 13.6694 22.7929 13.7158C23.062 13.755 23.4863 13.3805 23.6691 13.0773C23.8313 12.8097 23.7726 12.3888 23.7726 12.0321C23.7795 8.34719 23.7933 4.66229 23.7623 0.977392C23.7554 0.235418 23.99 0.00711834 24.7006 0.0142527C27.4881 0.0463573 30.2756 0.0463573 33.063 0.0142527C33.7737 0.00711834 34.0014 0.231851 33.991 0.977392C33.9565 4.15575 34.1256 7.34481 33.922 10.5125C33.7909 12.5244 33.1941 14.5184 32.6973 16.4911C32.1592 18.6421 31.4692 20.7503 30.9103 22.8942C30.7102 23.6575 30.4446 24.0107 29.5925 23.9964C26.1461 23.9393 22.6963 23.9572 19.2465 23.9857C18.5979 23.9928 18.2633 23.8181 18.0942 23.1296C17.832 22.0487 17.4629 20.9928 17.1386 19.9298C17.0731 19.9298 17.011 19.9334 16.9454 19.937L16.9489 19.9298Z" fill="#1E1E1E"/>
<path d="M58.2536 23.9143C58.0432 23.9357 57.8776 23.9643 57.712 23.9643C54.8107 23.9643 51.9059 23.9571 49.0046 23.975C48.4147 23.9785 48.187 23.7716 48.187 23.1509C48.1974 15.7205 48.1974 8.29364 48.187 0.863196C48.187 0.256775 48.3871 0.0106391 48.9874 0.0142063C51.5437 0.0320422 54.1035 0.0320422 56.6598 0.0142063C57.1635 0.0106391 57.4256 0.213968 57.6568 0.663433C58.7918 2.89292 59.9578 5.10457 61.1135 7.32336C61.1963 7.48032 61.2929 7.63014 61.3688 7.7871C61.6068 8.28293 61.9725 8.5469 62.4796 8.25796C62.9799 7.97616 62.9764 7.52312 62.7211 7.03442C62.0587 5.7538 61.3136 4.50172 60.7892 3.16403C60.4684 2.35071 60.4615 1.39471 60.389 0.495776C60.3787 0.356656 60.7547 0.0498781 60.9548 0.0498781C63.9148 0.0213406 66.8747 0.0320422 69.8346 0.0249078C70.3004 0.0249078 70.535 0.22467 70.5074 0.716941C70.5005 0.866763 70.5074 1.01302 70.5074 1.16284C70.5074 8.38281 70.4936 15.6064 70.5246 22.8263C70.5281 23.7217 70.3004 24.0106 69.4138 23.9892C66.9713 23.9286 64.5288 23.9536 62.0863 23.9785C61.5516 23.9857 61.2584 23.8002 61.0135 23.315C59.7784 20.8751 58.4985 18.4565 57.26 16.0166C56.9634 15.4351 56.5459 15.1961 56.0043 15.4851C55.4489 15.7847 55.5524 16.2948 55.818 16.7907C56.401 17.8787 56.9116 19.013 57.5602 20.0582C58.2915 21.2354 58.4364 22.4767 58.2501 23.9143H58.2536Z" fill="#1E1E1E"/>
<path d="M72.3083 12.0069C72.3083 8.322 72.3117 4.63353 72.3048 0.948635C72.3048 0.431394 72.3014 0.0140336 72.9948 0.0176008C78.7422 0.0461383 84.493 -0.000235088 90.2404 0.099646C92.8623 0.146019 94.5079 1.82973 94.5596 4.54079C94.6562 9.53128 94.6459 14.5289 94.5562 19.5194C94.5079 22.1698 92.7588 23.8535 90.168 23.9249C87.4668 23.9998 84.7656 23.9605 82.0609 23.9641C79.101 23.9677 76.1376 23.9463 73.1776 23.9784C72.498 23.9855 72.291 23.7679 72.2945 23.0616C72.3255 19.3767 72.3083 15.6882 72.3083 12.0033V12.0069ZM82.5094 12.0283C82.5094 13.5444 82.5025 15.0568 82.5094 16.5729C82.5163 17.429 82.8544 17.668 83.6547 17.4362C84.2723 17.2578 84.4034 16.7905 84.3999 16.2019C84.3896 13.5872 84.3999 10.976 84.3965 8.36124C84.3965 8.06516 84.4137 7.76552 84.3861 7.46944C84.3137 6.71677 83.8169 6.51701 83.1752 6.50274C82.4715 6.48847 82.506 6.99501 82.506 7.48015C82.506 8.9962 82.506 10.5087 82.506 12.0247L82.5094 12.0283Z" fill="#1E1E1E"/>
<path d="M96.4364 9.98799C96.4364 6.98799 96.4571 3.98443 96.4226 0.984427C96.4157 0.24602 96.633 -0.000115314 97.3506 0.0105862C100.138 0.0426909 102.925 0.0498252 105.713 0.0105862C106.503 -0.000115314 106.672 0.31023 106.669 1.05577C106.644 5.92854 106.655 10.8049 106.655 15.6776C106.655 16.919 106.896 17.3721 107.565 17.397C108.252 17.422 108.521 16.9333 108.521 15.6562C108.521 10.7835 108.538 5.90714 108.507 1.03437C108.504 0.253155 108.725 -0.000115314 109.48 0.0105862C112.268 0.0462581 115.055 0.0462581 117.843 0.0105862C118.612 -0.000115314 118.819 0.288826 118.815 1.0522C118.791 6.81677 118.777 12.5813 118.815 18.3495C118.836 21.6669 116.349 24.0926 113.347 23.9999C109.528 23.8822 105.699 23.8715 101.88 23.9999C98.696 24.1105 96.2604 21.3495 96.4053 18.2817C96.5364 15.5243 96.4329 12.7561 96.4329 9.99156L96.4364 9.98799Z" fill="#1E1E1E"/>
<path d="M142.84 10.0347C142.84 12.8884 142.843 15.7422 142.84 18.5923C142.833 21.6708 140.767 23.9074 137.783 23.9467C133.819 23.9966 129.851 23.9823 125.884 23.9609C122.603 23.9431 120.523 21.8848 120.489 18.4746C120.43 12.6209 120.478 6.76713 120.464 0.913383C120.464 0.27129 120.668 0.00731884 121.31 0.0144532C124.183 0.0358563 127.057 0.0429907 129.931 0.0144532C130.662 0.00731884 130.766 0.36047 130.762 0.998995C130.745 5.93241 130.752 10.8658 130.755 15.7992C130.755 16.0953 130.683 16.4485 130.81 16.6732C130.98 16.9693 131.3 17.3224 131.583 17.351C131.866 17.3795 132.294 17.1084 132.456 16.8373C132.632 16.5412 132.611 16.0953 132.615 15.7172C132.625 10.873 132.639 6.02872 132.604 1.18449C132.597 0.317664 132.787 -0.0176514 133.698 0.000184476C136.427 0.0608266 139.159 0.0465578 141.888 0.00731884C142.647 -0.00338271 142.871 0.249887 142.861 1.0311C142.819 4.0311 142.843 7.03467 142.843 10.0347H142.84Z" fill="#1E1E1E"/>
<path d="M46.3966 12.0107C46.3966 15.6921 46.3793 19.377 46.4104 23.0583C46.4173 23.7575 46.2241 23.9858 45.541 23.9786C42.6121 23.9465 39.6832 23.943 36.7543 23.9786C36.0091 23.9893 35.8401 23.6933 35.8436 22.9869C35.8608 15.6528 35.8643 8.31513 35.8436 0.981003C35.8436 0.246163 36.0643 -0.00353956 36.7785 0.00359481C39.6798 0.0356994 42.5811 0.0356994 45.4789 0.00359481C46.1792 -0.00353956 46.4207 0.203357 46.4138 0.9596C46.3793 4.64093 46.3966 8.32583 46.3966 12.0072V12.0107Z" fill="#1E1E1E"/>
</g>
<defs>
<clipPath id="clip0_98_724">
<rect width="142.857" height="24" fill="white"/>
</clipPath>
</defs>
</svg>
