<svg width="156" height="243" viewBox="0 0 156 243" fill="none" xmlns="http://www.w3.org/2000/svg">
<g clip-path="url(#clip0_31_315)">
<path d="M56.6326 64.4623C55.584 67.8668 54.4656 71.2596 53.4986 74.6874C52.9743 76.5529 52.019 77.2874 49.9918 77.2758C38.0501 77.1825 26.12 77.1941 14.1782 77.2758C12.0695 77.2874 11.1374 76.5529 10.5666 74.4776C7.58403 63.6579 4.35684 52.9081 1.42092 42.0651C0.593738 39.0104 0.162669 35.7575 0.116067 32.5862C-0.0586899 22.8858 0.127718 13.1621 -0.000437413 3.45003C-0.0353889 0.780081 0.815097 -0.0477188 3.51801 -0.00108218C12.7335 0.162146 21.9607 0.162146 31.1763 -0.00108218C33.8675 -0.0477188 34.4035 0.919991 34.3801 3.35675C34.2753 15.4939 34.2753 27.6428 34.4151 39.7799C34.4268 41.1207 35.2539 42.6947 36.1976 43.6741C36.6636 44.1521 38.6792 43.9306 39.2501 43.3243C40.0539 42.4849 40.5083 40.9808 40.52 39.7683C40.6132 27.8176 40.5666 15.8787 40.5782 3.92805C40.5782 1.35527 41.8287 0.0688727 44.3297 0.0688727C52.9627 0.0688727 61.6073 0.150487 70.2403 0.010577C72.6054 -0.0244005 73.2345 0.780081 73.2112 3.00698C73.1297 14.9576 73.1763 26.8966 73.1763 38.8472C73.1763 39.6284 72.8734 40.6427 73.2578 41.1324C74.1549 42.31 75.3782 43.231 76.4734 44.2687C77.4054 43.1961 79.0132 42.2167 79.153 41.0508C79.5258 37.8911 79.2928 34.6616 79.2928 31.4553C79.2928 22.0347 79.351 12.6141 79.2578 3.19352C79.2345 0.850036 79.8637 -0.0127413 82.3685 0.0222361C91.7821 0.162146 101.196 0.150487 110.609 0.0222361C112.893 -0.00108218 113.65 0.640171 113.627 2.972C113.522 13.267 113.976 23.5854 113.417 33.8454C113.114 39.4651 111.413 45.0615 109.945 50.553C107.778 58.6794 105.203 66.7009 102.932 74.804C102.419 76.6462 101.557 77.2641 99.7161 77.2641C87.7743 77.2058 75.8442 77.2058 63.9025 77.2641C62.0734 77.2641 61.1064 76.6928 60.6054 74.8273C59.6734 71.3179 58.4734 67.8785 57.3782 64.4041C57.1336 64.4274 56.9005 64.439 56.6559 64.4623H56.6326Z" fill="#1E1E1E"/>
<path d="M80.5281 121.908C80.5281 109.957 80.598 98.0068 80.4815 86.0678C80.4582 83.3512 81.1456 82.3252 84.0466 82.3485C102 82.4651 119.965 82.3835 137.918 82.4418C140.225 82.4418 142.579 82.7566 144.839 83.258C151.549 84.7387 155.883 90.5566 155.953 98.3915C156.07 111.508 156 124.613 156 137.729C156 139.968 156.023 142.195 156 144.433C155.837 154.822 150.105 160.756 139.748 160.85C125.091 161.001 110.435 160.908 95.7786 160.92C92.0854 160.92 88.4039 160.92 84.7106 160.92C81.9301 160.92 80.5398 159.571 80.5398 156.874C80.5398 145.215 80.5398 133.567 80.5398 121.908H80.5281ZM115.165 121.582C115.165 126.63 115.153 131.667 115.165 136.715C115.177 139.443 116.447 140.318 119.033 139.432C121.014 138.755 121.456 137.228 121.445 135.293C121.398 126.373 121.421 117.454 121.421 108.523C121.421 107.94 121.456 107.346 121.351 106.786C120.92 104.349 119.161 103.848 117.041 103.883C114.722 103.93 115.165 105.644 115.165 107.031C115.142 111.881 115.165 116.731 115.165 121.582Z" fill="#1E1E1E"/>
<path d="M74.4349 122.013C74.4349 133.87 74.3766 145.716 74.4815 157.562C74.5048 159.952 73.8174 160.803 71.3825 160.768C63.0407 160.651 54.6873 160.675 46.3339 160.768C44.5164 160.791 43.5611 160.115 42.7339 158.541C38.8194 151.079 34.7766 143.687 30.7805 136.272C30.5009 135.759 30.3494 135.013 29.93 134.78C28.7999 134.173 27.3553 133.159 26.3766 133.451C24.5126 133.999 24.6174 135.782 25.4329 137.321C27.6232 141.414 29.8601 145.494 32.0737 149.575C32.5397 150.426 33.2621 151.266 33.3553 152.163C33.6116 154.74 34.0427 157.457 33.4368 159.87C33.2504 160.581 29.8368 160.686 27.8912 160.698C19.7359 160.78 11.5805 160.628 3.42517 160.791C0.67566 160.85 -0.0117188 159.882 -0.0117188 157.247C0.0814851 133.835 0.0698346 110.424 -0.0117188 87.0121C-0.0117188 84.3189 0.605757 83.2462 3.53003 83.3162C11.5805 83.5027 19.6427 83.4444 27.7048 83.3395C29.697 83.3162 30.8388 83.8875 31.7825 85.718C35.6155 93.1099 39.6582 100.397 43.5728 107.754C44.4582 109.421 45.4834 111.018 47.5689 109.957C49.6776 108.885 48.9436 107.054 48.0815 105.422C46.1941 101.819 44.4931 98.0883 42.3261 94.6722C40.4621 91.7341 40.4271 88.6677 40.4388 85.4615C40.4388 83.7476 41.231 83.3628 42.7689 83.3745C52.4737 83.4211 62.1786 83.4444 71.8951 83.3628C74.0504 83.3395 74.4698 84.2722 74.4582 86.1843C74.3999 98.135 74.4232 110.086 74.4232 122.036L74.4349 122.013Z" fill="#1E1E1E"/>
<path d="M74.5866 197.914C74.5866 206.752 74.3653 215.589 74.6449 224.427C74.9827 235.06 67.107 243.245 56.1439 243C43.6313 242.708 31.107 242.953 18.5944 242.93C6.83905 242.895 0.0584679 236.039 0.0584679 224.217C0.0584679 205.866 0.10507 187.514 0.0118659 169.151C0.000215441 166.446 0.675944 165.397 3.57691 165.455C12.6992 165.63 21.8216 165.618 30.9439 165.455C33.7284 165.408 34.3225 166.388 34.2992 168.976C34.1944 184.809 34.241 200.631 34.2526 216.464C34.2526 217.338 33.9614 218.469 34.3924 219.029C35.1963 220.078 36.4546 221.489 37.4682 221.454C38.4818 221.419 39.6468 219.903 40.3225 218.784C40.7653 218.061 40.4624 216.895 40.4624 215.916C40.4624 200.281 40.5323 184.646 40.4041 169.011C40.3808 166.143 41.2779 165.408 44.0391 165.455C53.1614 165.618 62.2837 165.606 71.406 165.455C74.0274 165.408 74.6798 166.283 74.6449 168.789C74.5167 178.502 74.5983 188.214 74.5983 197.926L74.5866 197.914Z" fill="#1E1E1E"/>
<path d="M154.905 197.599C154.905 206.53 154.905 215.473 154.905 224.404C154.905 236.063 148.171 242.883 136.532 242.918C123.915 242.953 111.297 242.953 98.6913 242.918C87.4136 242.883 80.5632 236.028 80.5399 224.777C80.5166 206.227 80.5748 187.677 80.4816 169.128C80.47 166.446 81.0641 165.373 84.0117 165.432C93.2272 165.618 102.454 165.572 111.67 165.455C114.117 165.42 114.792 166.224 114.781 168.615C114.687 184.448 114.734 200.269 114.734 216.102C114.734 216.883 114.454 217.84 114.804 218.399C115.55 219.588 116.621 221.407 117.565 221.396C118.649 221.396 119.895 219.833 120.734 218.702C121.153 218.131 120.862 217.012 120.862 216.137C120.862 200.502 120.92 184.867 120.816 169.233C120.792 166.353 121.561 165.362 124.567 165.432C133.585 165.63 142.614 165.583 151.643 165.455C154.171 165.42 155.021 166.166 154.986 168.755C154.847 178.362 154.928 187.98 154.928 197.599H154.905Z" fill="#1E1E1E"/>
<path d="M119.464 38.8483C119.464 27.0026 119.522 15.1569 119.418 3.31125C119.394 0.816194 120.07 -0.0349243 122.68 5.32003e-05C132.385 0.151622 142.089 0.128304 151.783 0.0117123C154.066 -0.011606 154.847 0.687943 154.847 2.9848C154.788 26.7695 154.788 50.5658 154.847 74.3505C154.847 76.5191 154.078 77.2652 151.969 77.2536C142.078 77.1953 132.175 77.172 122.284 77.2652C119.849 77.2886 119.406 76.2159 119.418 74.0823C119.487 62.3299 119.453 50.5891 119.453 38.8367L119.464 38.8483Z" fill="#1E1E1E"/>
</g>
<defs>
<clipPath id="clip0_31_315">
<rect width="156" height="243" fill="white"/>
</clipPath>
</defs>
</svg>
